<svg width="159" height="57" viewBox="0 0 159 57" fill="none" xmlns="http://www.w3.org/2000/svg">
<path d="M55 27C55 42.464 43.464 56.5 28 56.5C12.536 56.5 0 43.964 0 28.5C0 13.036 12.536 0 28 0C43.464 0 55 11.536 55 27Z" fill="#EBF0F3"/>
<mask id="mask0" mask-type="alpha" maskUnits="userSpaceOnUse" x="1" y="4" width="53" height="53">
<circle cx="27.5" cy="30.5" r="26.5" fill="#5F4545"/>
</mask>
<g mask="url(#mask0)">
<path d="M35.0221 78.0362C35.0221 78.0362 42.654 81.2046 45.3968 77.1997C57.417 59.6846 53.9111 41.4851 52.3609 35.7565C50.7868 30.028 34.4259 -4.82484 14.6545 19.1032C-5.11697 43.0313 7.69034 74.6903 12.985 77.9095C18.2796 81.1286 23.0734 77.9095 23.3596 77.9095C23.6458 77.9095 24.5282 72.7132 24.5282 72.7132H33.6388" fill="#A9CE1A"/>
<path d="M28.9349 40.7015C33.5498 40.7015 37.2909 36.7207 37.2909 31.8102C37.2909 26.8997 33.5498 22.9189 28.9349 22.9189C24.3199 22.9189 20.5788 26.8997 20.5788 31.8102C20.5788 36.7207 24.3199 40.7015 28.9349 40.7015Z" fill="#FEFEFE"/>
<path d="M28.9348 37.231C31.7485 37.231 34.0294 34.804 34.0294 31.8102C34.0294 28.8163 31.7485 26.3893 28.9348 26.3893C26.1212 26.3893 23.8403 28.8163 23.8403 31.8102C23.8403 34.804 26.1212 37.231 28.9348 37.231Z" fill="#3B2721"/>
<path d="M28.9348 35.2046C30.6966 35.2046 32.1249 33.6849 32.1249 31.8102C32.1249 29.9356 30.6966 28.4158 28.9348 28.4158C27.173 28.4158 25.7448 29.9356 25.7448 31.8102C25.7448 33.6849 27.173 35.2046 28.9348 35.2046Z" fill="#1E1210"/>
<path d="M26.7208 31.5569C27.5886 31.5569 28.2921 30.8083 28.2921 29.885C28.2921 28.9617 27.5886 28.2131 26.7208 28.2131C25.8531 28.2131 25.1496 28.9617 25.1496 29.885C25.1496 30.8083 25.8531 31.5569 26.7208 31.5569Z" fill="#FEFEFE"/>
<path d="M23.1851 49.8143C23.1851 49.8143 22.509 53.3634 23.7916 52.6236C25.0504 51.8839 25.4526 51.2744 25.4526 51.2744L23.1851 49.8143Z" fill="white"/>
<path d="M34.2491 49.8246C34.2491 49.8246 35.3076 53.279 33.9521 52.6832C32.5966 52.0875 32.154 51.5228 32.154 51.5228L34.2491 49.8246Z" fill="white"/>
<path d="M39.3621 15.7755C40.2191 15.6236 43.2187 10.4813 43.2187 10.4813C45.6231 13.7997 42.5521 19.1193 42.5521 19.1193L39.3621 15.7755Z" fill="#C45330"/>
<path d="M18.4124 15.4715C17.5554 15.2942 14.77 10 14.77 10C12.2227 13.1917 15.1033 18.6633 15.1033 18.6633L18.4124 15.4715Z" fill="#C45330"/>
<path d="M22.1262 47.0089C22.1262 47.0089 22.9118 51.5432 28.9587 51.7458C35.0055 51.9485 35.6959 47.0089 35.6959 47.0089" fill="#A9CE1A"/>
<path d="M22.1262 47.0089C22.1262 47.0089 22.9118 51.5432 28.9587 51.7458C35.0055 51.9485 35.6959 47.0089 35.6959 47.0089" stroke="#1E1210" stroke-width="0.75" stroke-miterlimit="10"/>
</g>
<path d="M71.7734 20.207C70.5898 20.207 69.5938 19.7969 68.7734 18.9766C67.9414 18.1328 67.5312 17.1367 67.5312 15.9766C67.5312 14.8281 67.9414 13.832 68.7734 12.9766C69.5938 12.1562 70.5898 11.7461 71.7734 11.7461C72.957 11.7461 73.9531 12.1562 74.7734 12.9766C75.5938 13.8086 76.0039 14.8047 76.0039 15.9648C76.0039 17.1484 75.5938 18.1445 74.7734 18.9648C73.9531 19.7852 72.957 20.1953 71.7734 20.1953V20.207ZM71.7734 9.98828C70.1328 9.98828 68.7266 10.5742 67.5547 11.7461C66.3828 12.918 65.7969 14.3242 65.7969 15.9648C65.7969 17.6172 66.3828 19.0234 67.5547 20.1836C68.7266 21.3555 70.1328 21.9414 71.7734 21.9414C73.4258 21.9414 74.8203 21.3438 75.9805 20.1836C77.1523 19.0117 77.75 17.6172 77.75 15.9648C77.75 14.3242 77.1523 12.9297 75.9805 11.7461C74.8203 10.5859 73.4258 9.98828 71.7734 9.98828ZM85.1914 10C83.8438 10 82.6953 10.4922 81.7227 11.4297C80.7734 12.3672 80.2461 13.5039 80.2461 14.875V21.2266C80.2461 21.3438 80.2695 21.4609 80.3164 21.5664C80.3633 21.6719 80.4219 21.7656 80.4922 21.8477C80.6445 22.0117 80.8555 22.1055 81.125 22.1055C81.3594 22.1055 81.5469 22.0117 81.7344 21.8594C81.8867 21.707 81.9805 21.5078 81.9805 21.2383V14.9688C81.9805 14.0781 82.2969 13.3164 82.9297 12.6836C83.5508 12.0625 84.3008 11.7578 85.1914 11.7578C85.6367 11.7578 86.0469 11.8398 86.4219 11.9922C86.7969 12.1445 87.1367 12.3789 87.4531 12.6836C88.0859 13.3164 88.4023 14.0781 88.4023 14.9688C88.4023 15.1797 88.4844 15.3906 88.6602 15.6133C88.8359 15.7539 89.0352 15.8242 89.2578 15.8242C89.4922 15.8242 89.6914 15.7422 89.8672 15.5664C90.043 15.3906 90.1367 15.1914 90.1367 14.9688C90.1367 13.5859 89.6328 12.4375 88.6719 11.4766C87.6992 10.5156 86.5508 10.0234 85.2031 10.0234L85.1914 10ZM98.4102 20.1953C97.2148 20.1953 96.207 19.7852 95.3867 18.9648C94.9648 18.543 94.6484 18.0859 94.4375 17.5938C94.2266 17.1016 94.1211 16.5625 94.1211 15.9883C94.1211 15.4141 94.2266 14.875 94.4375 14.3828C94.6484 13.8906 94.9648 13.4336 95.3867 13.0117C96.207 12.1914 97.2148 11.7812 98.4102 11.7812C99.6172 11.7812 100.625 12.1914 101.445 13.0117C102.277 13.8438 102.699 14.8398 102.699 16C102.699 17.1719 102.277 18.1562 101.445 18.9766C100.625 19.7852 99.6172 20.207 98.4102 20.207V20.1953ZM104.434 21.3203V16C104.434 15.7773 104.422 15.5664 104.41 15.3555C104.398 15.1445 104.375 14.9336 104.352 14.7109L104.234 14.2773L103.988 13.6797L103.754 13.1523L103.496 12.6719L102.711 11.793C102.148 11.1719 101.457 10.7734 100.754 10.4805C100.051 10.1875 99.2656 10.0469 98.4102 10.0469C96.7344 10.0469 95.3164 10.6328 94.1562 11.793C92.9727 12.9648 92.3867 14.3711 92.3867 16C92.3867 17.6523 92.9727 19.0469 94.1562 20.2188C95.3164 21.3672 96.7344 21.9648 98.4102 21.9648C99.5469 21.9648 100.59 21.6719 101.539 21.0977C101.738 20.9688 101.938 20.8281 102.137 20.6758C102.336 20.5234 102.523 20.3594 102.699 20.1836V21.332C102.699 22.2227 102.277 22.9844 101.434 23.6523C100.988 24.0039 100.508 24.2734 99.9805 24.4375C99.4531 24.6016 98.8789 24.6836 98.2578 24.6836C98.0117 24.6836 97.8125 24.7656 97.6484 24.9414C97.4727 25.1172 97.3906 25.3281 97.3906 25.5742C97.3906 25.8086 97.4727 26.0078 97.6484 26.1836C97.8125 26.3594 98.0117 26.4414 98.2578 26.4414C99.9336 26.4414 101.375 25.9609 102.582 24.9883C103.824 23.9922 104.445 22.7734 104.445 21.3438L104.434 21.3203ZM79.3906 35.0352C78.3945 35.0352 77.4688 35.3281 76.625 35.8906C76.3789 36.0547 76.1562 36.2305 75.9453 36.4414C75.7344 36.6523 75.5469 36.8867 75.3711 37.1328C75.2188 36.9102 75.0312 36.6875 74.8086 36.4766C74.5859 36.2656 74.3516 36.0781 74.1055 35.9023C73.2734 35.3281 72.3477 35.0469 71.3281 35.0469C70.0039 35.0469 68.8555 35.5156 67.8945 36.4531C66.9453 37.3789 66.4414 38.5156 66.4414 39.8516V46.1445C66.4414 46.3672 66.5234 46.5664 66.6758 46.7422C66.8281 46.918 67.0391 47 67.3086 47C67.5312 47 67.7305 46.9297 67.9062 46.7539C68.0703 46.6016 68.1523 46.4023 68.1523 46.1562V39.9336C68.1523 39.0547 68.4805 38.3281 69.0898 37.707C69.7109 37.0859 70.4492 36.7578 71.3281 36.7578C72.1953 36.7578 72.9453 37.0742 73.5664 37.707C74.1875 38.3281 74.4922 39.0664 74.4922 39.9336V46.1562C74.4922 46.4375 74.5859 46.6367 74.7734 46.8008C74.9375 46.9531 75.125 47.0117 75.3359 47.0117C75.582 47.0117 75.7812 46.9414 75.9453 46.7656C76.1094 46.5898 76.1914 46.3906 76.1914 46.1562V39.9336C76.1914 39.0547 76.5078 38.3281 77.1289 37.707C77.7617 37.0742 78.5 36.7578 79.3789 36.7578C80.2578 36.7578 81.0078 37.0742 81.6289 37.707C82.2383 38.3164 82.543 39.0547 82.543 39.9336V46.1562C82.543 46.4141 82.625 46.6016 82.8008 46.7656C82.9883 46.9297 83.1758 47.0117 83.3984 47.0117C83.6094 47.0117 83.8086 46.9414 83.9844 46.7773C84.1719 46.6367 84.2656 46.4258 84.2656 46.1562V39.9336C84.2656 38.6094 83.7852 37.4609 82.8242 36.4883C81.8984 35.5391 80.75 35.0586 79.3789 35.0586L79.3906 35.0352ZM92.6562 45.207C91.4727 45.207 90.4766 44.7969 89.6562 43.9766C88.8242 43.1328 88.4141 42.1367 88.4141 40.9766C88.4141 39.8281 88.8242 38.832 89.6562 37.9766C90.4766 37.1562 91.4727 36.7461 92.6562 36.7461C93.8398 36.7461 94.8359 37.1562 95.6562 37.9766C96.4766 38.8086 96.8867 39.8047 96.8867 40.9648C96.8867 42.1484 96.4766 43.1445 95.6562 43.9648C94.8359 44.7852 93.8398 45.1953 92.6562 45.1953V45.207ZM92.6562 34.9883C91.0156 34.9883 89.6094 35.5742 88.4375 36.7461C87.2656 37.918 86.6797 39.3242 86.6797 40.9648C86.6797 42.6172 87.2656 44.0234 88.4375 45.1836C89.6094 46.3555 91.0156 46.9414 92.6562 46.9414C94.3086 46.9414 95.7031 46.3438 96.8633 45.1836C98.0352 44.0117 98.6328 42.6172 98.6328 40.9648C98.6328 39.3242 98.0352 37.9297 96.8633 36.7461C95.7031 35.5859 94.3086 34.9883 92.6562 34.9883ZM105.699 35.0586C104.375 35.0586 103.238 35.5273 102.289 36.4766C101.328 37.4258 100.836 38.5508 100.836 39.8633V46.1445C100.836 46.4141 100.918 46.6133 101.082 46.7422C101.164 46.8477 101.258 46.918 101.352 46.9531C101.445 46.9883 101.551 47 101.668 47C101.926 47 102.137 46.918 102.301 46.7422C102.465 46.6016 102.547 46.4023 102.547 46.1445V39.9336C102.547 39.0547 102.852 38.3047 103.461 37.6953C104.082 37.0859 104.82 36.7812 105.676 36.7812C106.531 36.7812 107.27 37.0859 107.891 37.6953C108.512 38.3047 108.816 39.0547 108.816 39.9336V46.1445C108.816 46.3555 108.898 46.5547 109.051 46.7305C109.203 46.9062 109.414 47 109.684 47C109.953 47 110.164 46.918 110.316 46.7422C110.41 46.6602 110.469 46.5781 110.504 46.4844C110.539 46.3906 110.551 46.2734 110.551 46.1445V39.9336C110.551 38.5977 110.07 37.4492 109.121 36.5C108.16 35.5391 107.012 35.0586 105.676 35.0586H105.699ZM121.777 41.9727H121.789C121.672 41.7734 121.52 41.5742 121.332 41.3867C121.145 41.1992 120.934 41.0117 120.688 40.8359C120.324 40.5898 119.867 40.4023 119.316 40.2734C118.766 40.1445 118.121 40.0742 117.395 40.0742C116.879 40.0742 116.422 40.0273 116.035 39.9453C115.648 39.8633 115.344 39.7461 115.121 39.6055C114.816 39.3945 114.617 39.1953 114.523 39.0195V39.043C114.488 38.9492 114.477 38.75 114.477 38.4453V38.3047C114.488 38.1758 114.57 38.0117 114.723 37.8125V37.8242C115.004 37.4961 115.367 37.2383 115.824 37.0508C116.281 36.8633 116.832 36.7695 117.477 36.7695C118.355 36.7695 119.129 37.0508 119.797 37.6133C119.809 37.625 119.82 37.6367 119.832 37.6367C119.984 37.7422 120.172 37.8125 120.383 37.8008C120.547 37.8008 120.676 37.7539 120.77 37.707C120.863 37.6602 120.945 37.5898 121.027 37.4844C121.098 37.4023 121.145 37.3203 121.168 37.2266C121.191 37.1328 121.203 37.0273 121.203 36.9102C121.191 36.7344 121.156 36.6055 121.098 36.5234C121.039 36.4414 120.957 36.3594 120.852 36.2773C120.371 35.9023 119.844 35.6094 119.258 35.3984C118.672 35.1875 118.062 35.082 117.43 35.082C116.492 35.082 115.672 35.2344 114.98 35.5273C114.289 35.8203 113.715 36.2539 113.27 36.8281C113.094 37.0625 112.953 37.2969 112.848 37.543C112.742 37.7891 112.684 38.0234 112.672 38.2461L112.66 38.5508C112.637 39.0781 112.73 39.5 112.883 39.8164C112.988 40.0273 113.141 40.2383 113.34 40.4492C113.539 40.6602 113.773 40.8711 114.043 41.0703C114.395 41.3281 114.84 41.5273 115.391 41.668C115.941 41.8086 116.586 41.8789 117.324 41.8789C117.863 41.8789 118.32 41.9141 118.707 41.9961C119.094 42.0781 119.41 42.1719 119.621 42.3242C119.914 42.5234 120.102 42.7344 120.207 42.9102C120.242 42.9688 120.266 43.0391 120.277 43.1211C120.289 43.2031 120.289 43.2969 120.289 43.4023C120.289 43.4375 120.289 43.4844 120.289 43.543C120.289 43.6016 120.277 43.6602 120.266 43.7188V43.7891C120.242 43.918 120.16 44.082 120.008 44.2812C119.738 44.6094 119.363 44.8672 118.895 45.0547C118.426 45.2422 117.875 45.3359 117.242 45.3359C116.914 45.3359 116.598 45.3008 116.305 45.2188C116.012 45.1367 115.719 45.0195 115.438 44.8672C115.168 44.7148 114.934 44.5391 114.734 44.3281C114.535 44.1172 114.359 43.8945 114.207 43.6484C114.148 43.5547 114.078 43.4727 113.996 43.4023C113.914 43.332 113.82 43.2734 113.715 43.2383V43.25C113.633 43.2148 113.539 43.1914 113.434 43.1914C113.293 43.1914 113.152 43.2383 113.012 43.332L113.023 43.3203C112.906 43.3789 112.812 43.4492 112.754 43.5312C112.695 43.6133 112.648 43.707 112.613 43.8125C112.59 43.8711 112.578 43.918 112.578 43.9531C112.578 43.9883 112.578 44.0352 112.578 44.082C112.578 44.2344 112.625 44.3867 112.719 44.5273H112.707C112.918 44.9141 113.188 45.2656 113.516 45.582C113.844 45.8984 114.207 46.168 114.605 46.3906C115.414 46.8477 116.305 47.0586 117.277 47.0586C118.227 47.0586 119.047 46.918 119.738 46.625C120.43 46.332 121.004 45.8984 121.449 45.3242C121.625 45.1016 121.766 44.8672 121.871 44.6211C121.977 44.375 122.035 44.1406 122.059 43.9062C122.07 43.8359 122.07 43.7539 122.07 43.6719V43.4375C122.07 42.875 121.977 42.418 121.777 42.0547V41.9727ZM129.922 45.2305C128.703 45.2305 127.66 44.7969 126.793 43.9414C125.938 43.0859 125.492 42.043 125.492 40.8242V36.6641H128.938C129.16 36.6641 129.371 36.582 129.57 36.4297C129.734 36.2539 129.816 36.043 129.816 35.7852C129.816 35.5391 129.734 35.3281 129.57 35.1641C129.371 34.9883 129.16 34.8945 128.938 34.8945H125.492V31.2031C125.492 30.9453 125.41 30.7344 125.246 30.5703C125.07 30.4062 124.859 30.3242 124.613 30.3242C124.367 30.3242 124.156 30.4062 123.98 30.5703C123.805 30.7695 123.711 30.9805 123.711 31.2031V40.9297C123.711 41.7852 123.922 42.5703 124.238 43.2852C124.555 44 125 44.6562 125.586 45.2422C126.793 46.4258 128.234 47 129.922 47C130.168 47 130.379 46.9297 130.555 46.7539C130.73 46.5781 130.824 46.3672 130.824 46.1211C130.824 45.875 130.73 45.6758 130.555 45.5117C130.379 45.3359 130.168 45.2422 129.934 45.2422L129.922 45.2305ZM142.871 40.0625H134.609C134.809 39.2305 135.23 38.5156 135.875 37.918V37.9297C136.719 37.1797 137.668 36.8047 138.734 36.8047C139.273 36.8047 139.789 36.8984 140.281 37.0859C140.773 37.2734 141.23 37.5312 141.617 37.8945C141.922 38.1758 142.168 38.5156 142.391 38.8789C142.613 39.2422 142.777 39.6289 142.883 40.0391L142.871 40.0625ZM144.746 40.9062V40.8828C144.746 40.0508 144.57 39.2891 144.266 38.5977C143.961 37.9062 143.527 37.2617 142.953 36.6992C141.793 35.5625 140.398 35.0117 138.77 35.0117C137.164 35.0117 135.758 35.5625 134.598 36.6992C133.426 37.8359 132.781 39.2305 132.781 40.8359V41.0117C132.781 42.6289 133.344 44.0469 134.527 45.2422C135.711 46.4375 137.141 47 138.77 47C139.742 47 140.668 46.7656 141.547 46.3086C141.969 46.0859 142.367 45.8164 142.73 45.5C143.094 45.1836 143.41 44.832 143.68 44.4453C143.785 44.293 143.844 44.1289 143.844 43.9531C143.844 43.918 143.844 43.8828 143.844 43.8594C143.844 43.8359 143.832 43.8125 143.82 43.7773C143.773 43.5312 143.645 43.3438 143.434 43.2148C143.281 43.1211 143.117 43.0742 142.953 43.0742H142.824C142.555 43.1328 142.355 43.25 142.227 43.4258C142.027 43.7188 141.793 43.9766 141.535 44.1992C141.277 44.4219 140.996 44.6094 140.703 44.7617H140.715C140.398 44.9141 140.082 45.0312 139.766 45.1133C139.449 45.1953 139.109 45.2422 138.746 45.2422C137.598 45.2422 136.637 44.832 135.816 44.0469C135.477 43.707 135.184 43.3672 134.984 42.9805C134.785 42.5938 134.645 42.1836 134.574 41.7383H143.867C144.301 41.7383 144.582 41.5273 144.699 41.1055L144.688 41.1172C144.711 41.0586 144.723 41.0117 144.723 40.9766C144.723 40.9414 144.723 40.9062 144.723 40.8711L144.746 40.9062ZM152.012 35C150.664 35 149.516 35.4922 148.543 36.4297C147.594 37.3672 147.066 38.5039 147.066 39.875V46.2266C147.066 46.3438 147.09 46.4609 147.137 46.5664C147.184 46.6719 147.242 46.7656 147.312 46.8477C147.465 47.0117 147.676 47.1055 147.945 47.1055C148.18 47.1055 148.367 47.0117 148.555 46.8594C148.707 46.707 148.801 46.5078 148.801 46.2383V39.9688C148.801 39.0781 149.117 38.3164 149.75 37.6836C150.371 37.0625 151.121 36.7578 152.012 36.7578C152.457 36.7578 152.867 36.8398 153.242 36.9922C153.617 37.1445 153.957 37.3789 154.273 37.6836C154.906 38.3164 155.223 39.0781 155.223 39.9688C155.223 40.1797 155.305 40.3906 155.48 40.6133C155.656 40.7539 155.855 40.8242 156.078 40.8242C156.312 40.8242 156.512 40.7422 156.688 40.5664C156.863 40.3906 156.957 40.1914 156.957 39.9688C156.957 38.5859 156.453 37.4375 155.492 36.4766C154.52 35.5156 153.371 35.0234 152.023 35.0234L152.012 35Z" fill="#434184"/>
</svg>
